<svg width="48" height="48" viewBox="0 0 48 48" fill="none" xmlns="http://www.w3.org/2000/svg">
<circle cx="24" cy="24" r="23" stroke="#B086F8" stroke-width="2"/>
<path fill-rule="evenodd" clip-rule="evenodd" d="M37.7613 31.5715C37.0623 30.1634 36.1411 28.8772 35.0333 27.7622C34.6563 27.324 34.2143 26.8915 33.8692 26.5539L33.821 26.5067C33.643 26.3325 33.4959 26.1879 33.3756 26.0633C34.8904 23.957 36.1868 21.7016 37.2447 19.3318L37.2873 19.2362L37.3173 19.1359C37.4563 18.6694 37.6164 17.7825 37.05 16.9809C36.4645 16.1524 35.527 16.003 34.8992 16.003H32.011C31.4089 15.9754 30.8127 16.1382 30.3076 16.4691C29.7986 16.8025 29.4092 17.2889 29.1951 17.8574C28.573 19.339 27.7947 20.7482 26.8744 22.0615V18.6769C26.8744 18.2394 26.8333 17.5075 26.3648 16.8898C25.8039 16.1502 24.9927 16.003 24.4297 16.003H19.8468C19.2564 15.9894 18.6821 16.2005 18.2408 16.5946C17.7889 16.9982 17.512 17.5619 17.4687 18.1663L17.4646 18.2236V18.281C17.4646 18.9049 17.7119 19.3652 17.9094 19.6547C17.9979 19.7843 18.0925 19.9023 18.1522 19.9768L18.166 19.994C18.2297 20.0734 18.2723 20.1265 18.3149 20.1845C18.4272 20.3373 18.5887 20.5727 18.6344 21.182V23.0753C17.8443 21.7765 17.0109 20.0482 16.3838 18.2023L16.3742 18.174L16.3635 18.146C16.2071 17.7365 15.9563 17.1406 15.454 16.6846C14.8673 16.1519 14.1732 16.003 13.542 16.003H10.6116C9.97303 16.003 9.20322 16.1524 8.62882 16.7583C8.06397 17.3542 8 18.0682 8 18.4478V18.6189L8.03604 18.7862C8.84772 22.5536 10.5202 26.0816 12.922 29.0943C14.011 30.8116 15.4865 32.251 17.2313 33.2971C19.0039 34.36 21.0036 34.9865 23.0657 35.1251L23.1195 35.1287H23.1735C24.1064 35.1287 25.0789 35.0481 25.8103 34.5608C26.7969 33.9033 26.8744 32.8936 26.8744 32.3905V30.9278C27.1276 31.1325 27.4418 31.408 27.8263 31.7783C28.2912 32.2437 28.6613 32.6468 28.9788 32.9988L29.1483 33.1871L29.1493 33.1882C29.3958 33.4628 29.6385 33.733 29.8594 33.9551C30.1372 34.2344 30.4796 34.542 30.91 34.7693C31.3761 35.0154 31.8653 35.1267 32.3849 35.1267H35.3173C35.9351 35.1267 36.8212 34.9806 37.4441 34.2584C38.1231 33.4712 38.0712 32.5065 37.8578 31.8132L37.8194 31.6884L37.7613 31.5715ZM30.4103 31.7073C30.0802 31.3414 29.6821 30.9076 29.1792 30.4046L29.175 30.4005C27.432 28.72 26.6175 28.4272 26.0416 28.4272C25.7354 28.4272 25.3964 28.4616 25.1765 28.7355C25.0727 28.8649 25.0182 29.0208 24.9876 29.1834C24.957 29.3458 24.9465 29.5364 24.9465 29.7535V32.3905C24.9465 32.718 24.8926 32.8555 24.7411 32.9564C24.5394 33.0909 24.1081 33.1999 23.1843 33.2007C21.4306 33.0812 19.7303 32.5476 18.2227 31.6436C16.7121 30.7378 15.4382 29.4861 14.5061 27.9916L14.4959 27.9753L14.4839 27.9604C12.2459 25.1747 10.6863 21.9069 9.92835 18.4152C9.93246 18.2469 9.96893 18.147 10.028 18.0847C10.0889 18.0205 10.2364 17.931 10.6116 17.931H13.542C13.868 17.931 14.0367 18.0019 14.1581 18.1121C14.2958 18.2371 14.4152 18.4493 14.5602 18.8282C15.2795 20.9438 16.2522 22.9223 17.1733 24.377C17.6336 25.1042 18.0867 25.7094 18.4949 26.137C18.6987 26.3505 18.8986 26.5275 19.0893 26.6533C19.2739 26.775 19.4831 26.871 19.6984 26.871C19.8119 26.871 19.9448 26.8593 20.0726 26.8027C20.2102 26.7418 20.317 26.6403 20.3924 26.5042C20.5258 26.2636 20.5624 25.9072 20.5624 25.4402V21.1168L20.5617 21.1067C20.4951 20.0548 20.1775 19.4632 19.8683 19.0426C19.8005 18.9504 19.7337 18.8671 19.6752 18.7943L19.6592 18.7743C19.595 18.6942 19.5439 18.6295 19.5019 18.568C19.425 18.4553 19.3952 18.3767 19.3928 18.2924C19.4028 18.1925 19.4499 18.0997 19.5251 18.0326C19.6031 17.9629 19.7051 17.9266 19.8096 17.931H24.4297C24.6945 17.931 24.7837 17.9956 24.8286 18.0548C24.892 18.1384 24.9465 18.3122 24.9465 18.6769V24.4976C24.9465 25.189 25.2651 25.657 25.7281 25.657C26.2606 25.657 26.6446 25.3339 27.316 24.6625L27.3272 24.6513L27.3372 24.639C28.8421 22.8039 30.072 20.7595 30.9874 18.5699L30.9932 18.5535C31.0621 18.36 31.1923 18.1944 31.3641 18.0818C31.5359 17.9693 31.7398 17.916 31.9446 17.9302L31.9557 17.931H34.8992C35.3007 17.931 35.4328 18.0331 35.4755 18.0936C35.5209 18.1578 35.5525 18.2956 35.4753 18.5658C34.4199 20.9262 33.1148 23.1666 31.5829 25.2496L31.5733 25.2643C31.4245 25.4917 31.2614 25.7434 31.2378 26.0324C31.2124 26.3426 31.3467 26.6247 31.5816 26.9271C31.7528 27.1802 32.1059 27.5258 32.4641 27.8764L32.4979 27.9095C32.8734 28.2771 33.2803 28.6753 33.6069 29.0608L33.6156 29.071L33.6252 29.0805C34.5988 30.0517 35.4083 31.1743 36.0224 32.4046C36.1204 32.7396 36.0604 32.9108 35.9842 32.9991C35.895 33.1025 35.6954 33.1987 35.3173 33.1987H32.3849C32.1559 33.1987 31.9791 33.1536 31.8103 33.0644C31.6343 32.9715 31.4533 32.8236 31.2263 32.5955C31.0435 32.4117 30.8438 32.1894 30.6002 31.9183C30.5398 31.851 30.4766 31.7807 30.4103 31.7073Z" fill="#B086F8"/>
</svg>
