<svg width="48" height="49" viewBox="0 0 48 49" fill="none" xmlns="http://www.w3.org/2000/svg">
<circle cx="24" cy="24" r="23" stroke="#B086F8" stroke-width="2"/>
<path d="M29.7954 16.9012C29.7954 16.17 30.3881 15.5773 31.1193 15.5773C31.8504 15.5773 32.4431 16.17 32.4431 16.9012C32.4431 17.6323 31.8504 18.225 31.1193 18.225C30.3881 18.225 29.7954 17.6323 29.7954 16.9012Z" fill="#B086F8"/>
<path fill-rule="evenodd" clip-rule="evenodd" d="M24.5 17.2322C21.027 17.2322 18.2117 20.0475 18.2117 23.5205C18.2117 26.9934 21.027 29.8088 24.5 29.8088C27.9729 29.8088 30.7883 26.9934 30.7883 23.5205C30.7883 20.0475 27.9729 17.2322 24.5 17.2322ZM20.1974 23.5205C20.1974 21.1443 22.1238 19.2179 24.5 19.2179C26.8762 19.2179 28.8025 21.1443 28.8025 23.5205C28.8025 25.8967 26.8762 27.823 24.5 27.823C22.1238 27.823 20.1974 25.8967 20.1974 23.5205Z" fill="#B086F8"/>
<path fill-rule="evenodd" clip-rule="evenodd" d="M31.4612 11.3847C26.8719 10.8718 22.1281 10.8718 17.5388 11.3847C14.8751 11.6824 12.7248 13.7807 12.4116 16.4583C11.8628 21.1504 11.8628 25.8905 12.4116 30.5827C12.7248 33.2602 14.8751 35.3586 17.5388 35.6563C22.1281 36.1692 26.8719 36.1692 31.4612 35.6563C34.1249 35.3586 36.2752 33.2602 36.5884 30.5827C37.1372 25.8906 37.1372 21.1504 36.5884 16.4583C36.2752 13.7807 34.1249 11.6824 31.4612 11.3847ZM17.7594 13.3582C22.2021 12.8617 26.7979 12.8617 31.2406 13.3582C33.0015 13.555 34.412 14.9445 34.6161 16.689C35.1469 21.2278 35.1469 25.8131 34.6161 30.352C34.412 32.0964 33.0015 33.486 31.2406 33.6828C26.7979 34.1793 22.2021 34.1793 17.7594 33.6828C15.9985 33.486 14.588 32.0964 14.3839 30.352C13.8531 25.8131 13.8531 21.2278 14.3839 16.689C14.588 14.9445 15.9985 13.555 17.7594 13.3582Z" fill="#B086F8"/>
</svg>
