<svg width="48" height="48" viewBox="0 0 48 48" fill="none" xmlns="http://www.w3.org/2000/svg">
<circle cx="24" cy="24" r="23" stroke="#B086F8" stroke-width="2"/>
<path fill-rule="evenodd" clip-rule="evenodd" d="M14.0293 26.8231C14.0896 26.8434 14.1504 26.8578 14.2111 26.8667C14.2774 27.0224 14.363 27.2238 14.4629 27.4593C14.7066 28.0341 15.035 28.8115 15.374 29.6226C16.0652 31.2766 16.7625 32.9815 16.9165 33.4696C17.1072 34.0729 17.3087 34.483 17.5287 34.763C17.6424 34.9078 17.774 35.0343 17.9279 35.13C18.0054 35.1782 18.0873 35.2177 18.1727 35.2472C18.1765 35.2485 18.1803 35.2498 18.184 35.251C18.6245 35.4173 19.026 35.348 19.2775 35.2633C19.412 35.218 19.5209 35.1633 19.598 35.1189C19.6373 35.0963 19.6706 35.0752 19.6971 35.0574L19.7033 35.0532L23.5933 32.6273L28.0865 36.0721C28.1529 36.123 28.2251 36.1656 28.3017 36.199C28.8415 36.4346 29.3642 36.5168 29.856 36.4496C30.3468 36.3825 30.7366 36.1763 31.0267 35.9442C31.3108 35.7169 31.5034 35.4623 31.6233 35.2732C31.6846 35.1766 31.7306 35.0911 31.763 35.0257C31.7793 34.9928 31.7924 34.9645 31.8025 34.9417L31.8155 34.9117L31.8204 34.8999L31.8225 34.8949L31.8234 34.8926L31.8242 34.8904C31.8479 34.8314 31.866 34.7703 31.8783 34.7079L35.9803 14.0271C35.9934 13.9609 36 13.8936 36 13.8262C36 13.2206 35.7718 12.6447 35.2352 12.2953C34.7766 11.9966 34.2658 11.9837 33.9429 12.0082C33.5946 12.0347 33.2729 12.1206 33.0571 12.1894C32.9448 12.2251 32.8506 12.2596 32.7827 12.2859C32.7485 12.2992 32.7206 12.3105 32.6997 12.3192L32.6841 12.3257L9.67956 21.3501L9.67658 21.3511C9.66192 21.3565 9.6431 21.3635 9.62073 21.3722C9.57619 21.3896 9.5165 21.414 9.44679 21.4456C9.31082 21.5072 9.12008 21.6035 8.92435 21.7376C8.61165 21.9517 7.8925 22.5382 8.0136 23.5062C8.1102 24.2784 8.63926 24.7527 8.9616 24.9808C9.13859 25.106 9.30673 25.1956 9.42919 25.2539C9.486 25.2809 9.60395 25.3288 9.65513 25.3496L9.66805 25.3549L14.0293 26.8231ZM33.4892 14.2268L33.486 14.2282C33.4745 14.2332 33.463 14.238 33.4513 14.2425L10.4189 23.2778C10.4069 23.2825 10.3947 23.287 10.3825 23.2913L10.3697 23.2961C10.355 23.3019 10.3302 23.3119 10.299 23.326C10.2814 23.3341 10.263 23.3428 10.2442 23.3522C10.27 23.3667 10.2947 23.3793 10.3166 23.3898C10.3377 23.3998 10.3538 23.4067 10.3626 23.4103L14.6881 24.8665C14.7672 24.8931 14.841 24.9284 14.9088 24.971L29.1912 16.6102L29.2046 16.6023C29.215 16.5961 29.2286 16.5882 29.245 16.579C29.2775 16.5606 29.3222 16.5361 29.3753 16.5091C29.4744 16.4586 29.633 16.3837 29.8117 16.3285C29.9361 16.2901 30.3029 16.1818 30.6994 16.309C30.9441 16.3875 31.1975 16.5562 31.3623 16.8421C31.4442 16.9841 31.4878 17.1268 31.5089 17.2574C31.5651 17.4632 31.5562 17.6663 31.5123 17.8417C31.4176 18.2195 31.1522 18.5143 30.9106 18.7397C30.7037 18.9329 28.0261 21.5148 25.3846 24.0636C24.0673 25.3346 22.7635 26.5931 21.7889 27.5338L21.1489 28.1517L29.2309 34.348C29.4163 34.4144 29.5258 34.4109 29.5765 34.404C29.6369 34.3958 29.6864 34.3725 29.7369 34.3321C29.7933 34.2869 29.8427 34.2259 29.8796 34.1677L29.8812 34.1653L33.8596 14.1073C33.8005 14.1215 33.7408 14.1384 33.6833 14.1567C33.6181 14.1774 33.5644 14.1972 33.5287 14.211C33.5111 14.2178 33.4984 14.223 33.4915 14.2259L33.4892 14.2268ZM21.8432 31.2856L20.2308 30.0494L19.8401 32.5348L21.8432 31.2856ZM18.7516 27.5964L20.3551 26.0484C21.3297 25.1076 22.6336 23.849 23.951 22.5779L25.2896 21.2865L16.3155 26.5398L16.3636 26.6534C16.6082 27.2302 16.9381 28.0111 17.2789 28.8264C17.5337 29.4361 17.8001 30.0781 18.0428 30.6724L18.4324 28.1943C18.4699 27.9554 18.5866 27.7486 18.7516 27.5964Z" fill="#B086F8"/>
</svg>
